# AST/ASF file generated using VICON BodyLanguage
# -----------------------------------------------
:version 1.10
:name VICON
:units
  mass 1.0
  length 0.45
  angle deg
:documentation
   .ast/.asf automatically generated from VICON data using
   VICON BodyBuilder and BodyLanguage model FoxedUp or BRILLIANT.MOD
:root
   order TX TY TZ RX RY RZ
   axis XYZ
   position 0 0 0  
   orientation 0 0 0 
:bonedata
  begin
     id 1 
     name lhipjoint
     direction 0.661853 -0.702389 0.261917 
     length 2.64193 
     axis 0 0 0  XYZ
  end
  begin
     id 2 
     name lfemur
     direction 0.34202 -0.939693 0  
     length 7.01722  
     axis 0 0 20  XYZ
    dof rx ry rz
    limits (-160.0 20.0)
           (-70.0 70.0)
           (-60.0 70.0)
  end
  begin
     id 3 
     name ltibia
     direction 0.34202 -0.939693 0   
     length 8.25008   
     axis 0 0 20   XYZ
    dof rx
    limits (-10.0 170.0)
  end
  begin
     id 4 
     name lfoot
     direction 0.0709916 -0.195048 0.978221   
     length 2.31941   
     axis -90 7.62852e-016 20   XYZ
    dof rx rz
    limits (-45.0 90.0)
           (-70.0 20.0)
  end
  begin
     id 5 
     name ltoes
     direction 1.53586e-011 -4.22017e-011 1   
     length 1.16486   
     axis -90 7.62852e-016 20   XYZ
    dof rx
    limits (-90.0 20.0)
  end
  begin
     id 6 
     name rhipjoint
     direction -0.638185 -0.721362 0.268992   
     length 2.57244  
     axis 0 0 0  XYZ 
  end
  begin
     id 7 
     name rfemur
     direction -0.34202 -0.939693 0   
     length 7.07017   
     axis 0 0 -20   XYZ
    dof rx ry rz
    limits (-160.0 20.0)
           (-70.0 70.0)
           (-70.0 60.0)
  end
  begin
     id 8 
     name rtibia
     direction -0.34202 -0.939693 0   
     length 8.20386   
     axis 0 0 -20   XYZ
    dof rx
    limits (-10.0 170.0)
 end
 begin
     id 9 
     name rfoot
     direction -0.0822429 -0.225961 0.970658   
     length 2.32215  
     axis -90 -7.62852e-016 -20   XYZ
    dof rx rz
    limits (-45.0 90.0)
           (-20.0 70.0)
  end
  begin
     id 10 
     name rtoes
     direction -1.53597e-011 -4.21689e-011 1   
     length 1.16333   
     axis -90 -7.62852e-016 -20   XYZ
    dof rx
    limits (-90.0 20.0)
  end
  begin
     id 11 
     name lowerback
     direction -0.0131557 0.998589 -0.0514484   
     length 2.14993   
     axis 0 0 0   XYZ
    dof rx ry rz
    limits (-20.0 45.0)
           (-30.0 30.0)
           (-30.0 30.0)
  end
  begin
     id 12 
     name upperback
     direction -0.000776481 0.999993 0.00352685   
     length 2.15301   
     axis 0 0 0   XYZ
    dof rx ry rz
    limits (-20.0 45.0)
           (-30.0 30.0)
           (-30.0 30.0)
  end
  begin
     id 13 
     name thorax
     direction 0.00438186 0.999609 0.0276143   
     length 2.15424   
     axis 0 0 0   XYZ
    dof rx ry rz
    limits (-20.0 45.0)
           (-30.0 30.0)
           (-30.0 30.0)
  end
  begin
     id 14 
     name lowerneck
     direction -0.0488006 0.998094 0.0377807   
     length 1.90481   
     axis 0 0 0   XYZ
    dof rx ry rz
    limits (-20.0 45.0)
           (-30.0 30.0)
           (-30.0 30.0)
  end
  begin
     id 15 
     name upperneck
     direction 0.0443769 0.990702 -0.12861   
     length 1.91305   
     axis 0 0 0   XYZ
    dof rx ry rz
    limits (-20.0 45.0)
           (-30.0 30.0)
           (-30.0 30.0)
  end
  begin
     id 16
     name head
     direction 0.0165599 0.998647 -0.0492982  
     length 1.92369  
     axis 0 0 0   XYZ
    dof rx ry rz
    limits (-20.0 45.0)
           (-30.0 30.0)
           (-30.0 30.0)
  end
  begin
     id 17 
     name lclavicle
     direction 0.911936 0.410197 -0.0105506  
     length 3.52622  
     axis 0 0 0   XYZ
    dof ry rz
    limits (-20.0 10.0)
           (0.0 20.0)
  end
  begin
     id 18 
     name lhumerus
     direction 1 -4.48974e-011 -2.48591e-028   
     length 5.47651   
     axis 180 -30 -90   XYZ
    dof rx ry rz
    limits (-60.0 90.0)
           (-90.0 90.0)
           (-90.0 90.0)
  end
  begin
     id 19
     name lradius
     direction 1 -4.48938e-011 -4.40099e-027   
     length 3.09058   
     axis 180 -30 -90   XYZ
    dof rx
    limits (-10.0 170.0)
  end
  begin
     id 20
     name lwrist
     direction 1 -4.49042e-011 -2.99852e-027   
     length 1.54529   
     axis 1.95339e-015 90 90   XYZ
    dof ry
    limits (-180.0 0.0)
 end
  begin
     id 21 
     name lhand
     direction 1 -4.48815e-011 -5.98193e-027   
     length 0.771611   
     axis 3.82337e-015 90 90   XYZ
    dof rx rz
    limits (-90.0 90.0)
           (-45.0 45.0)
  end
  begin
     id 22 
     name lfingers
     direction 1 -4.49034e-011 -1.1993e-026   
     length 0.622093   
     axis 7.64668e-015 90 90   XYZ
    dof rx
    limits (0.0 90.0)
  end
  begin
     id 23
     name lthumb
     direction 0.707107 -6.34867e-011 0.707107   
     length 0.893204   
     axis -90 45 -1.62303e-014   XYZ
    dof rx rz
    limits (-45.0 45.0)
           (-45.0 45.0)
  end
  begin
     id 24 
     name rclavicle
     direction -0.93442 0.355634 -0.0195692   
     length 3.62463  
     axis 0 0 0   XYZ 
    dof ry rz
    limits (-10.0 20.0)
           (-20.0 0.0)
  end
  begin
     id 25 
     name rhumerus
     direction -1 -4.48957e-011 -1.19147e-027  
     length 5.14182   
     axis 180 30 90   XYZ
    dof rx ry rz
    limits (-90.0 60.0)
           (-90.0 90.0)
           (-90.0 90.0)
  end
  begin
     id 26 
     name rradius
     direction -1 -4.48952e-011 -3.81062e-027   
     length 3.35565   
     axis 180 30 90   XYZ
    dof rx
    limits (-10.0 170.0)
  end
  begin
     id 27 
     name rwrist
     direction -1 -4.48973e-011 -2.99621e-027   
     length 1.67782   
     axis 1.95339e-015 -90 -90   XYZ
    dof ry
    limits (-180.0 0.0)
  end
  begin
     id 28
     name rhand
     direction -1 -4.48895e-011 -5.98727e-027   
     length 0.801042   
     axis 3.82337e-015 -90 -90   XYZ
    dof rx rz
    limits (-90.0 90.0)
           (-45.0 45.0)
  end
  begin
     id 29
     name rfingers
     direction -1 -4.49065e-011 -1.19972e-026   
     length 0.645821   
     axis 7.64668e-015 -90 -90   XYZ
    dof rx
    limits (0.0 90.0)
  end
  begin
     id 30
     name rthumb
     direction -0.707107 -6.34957e-011 0.707107   
     length 0.927273   
     axis -90 -45 1.62303e-014   XYZ
    dof rx rz
    limits (-45.0 45.0)
           (-45.0 45.0)
  end
:hierarchy
  begin
    root lhipjoint rhipjoint lowerback
    lhipjoint lfemur
    lfemur ltibia
    ltibia lfoot
    lfoot ltoes
    rhipjoint rfemur
    rfemur rtibia
    rtibia rfoot
    rfoot rtoes
    lowerback upperback
    upperback thorax
    thorax lowerneck lclavicle rclavicle
    lowerneck upperneck
    upperneck head
    lclavicle lhumerus
    lhumerus lradius
    lradius lwrist
    lwrist lhand lthumb
    lhand lfingers
    rclavicle rhumerus
    rhumerus rradius
    rradius rwrist
    rwrist rhand rthumb
    rhand rfingers
  end

#!OML:ASF E:\Style4\Style4.ASF
:FULLY-SPECIFIED
:DEGREES
416
root -2.05837 17.1158 -2.86431 6.3626 0.13915 -5.28629
lowerback 18.0984 -0.282971 -4.73944
upperback 11.6745 -1.043 -6.3263
thorax 2.42279 -0.546018 -3.8964
lowerneck -1.46561 4.00333 -6.89433
upperneck -8.9844 6.58316 14.5733
head -3.09347 3.10297 5.41993
rclavicle -1.90833e-014 -5.40694e-014
rhumerus 59.5224 -3.50497 6.64936
rradius 57.9118
rwrist -81.6801
rhand 14.6049 7.06161
rfingers 7.12502
rthumb 39.4796 -18.3193
lclavicle -1.90833e-014 -5.40694e-014
lhumerus 60.6693 -18.1109 50.4299
lradius 70.187
lwrist 89.1683
lhand -3.47597 24.2149
lfingers 7.12502
lthumb 22.2571 52.9532
rfemur -33.01 -0.372144 32.6578
rtibia 41.7357
rfoot -17.0745 -10.6478
rtoes -5.42989
lfemur -37.0706 8.51846 -5.06391
ltibia 46.9263
lfoot -12.4413 1.15468
ltoes -17.7383
417
root -2.09285 17.1102 -2.85059 6.30715 0.938171 -5.29371
lowerback 18.1152 -0.289992 -4.80053
upperback 11.681 -1.05258 -6.2445
thorax 2.42348 -0.553859 -3.77211
lowerneck -1.20895 3.87255 -7.11978
upperneck -9.10676 6.42393 14.7749
head -3.167 3.01163 5.52271
rclavicle 1.59028e-014 1.27222e-014
rhumerus 60.0055 -3.46847 6.91821
rradius 57.9456
rwrist -82.0257
rhand 14.3661 6.98351
rfingers 7.12502
rthumb 39.2546 -18.4631
lclavicle 1.59028e-014 1.27222e-014
lhumerus 60.3179 -17.9218 50.3341
lradius 70.0937
lwrist 89.0507
lhand -3.50434 24.2
lfingers 7.12502
lthumb 22.2299 52.9416
rfemur -33.0368 -0.791182 32.8037
rtibia 41.8649
rfoot -17.2427 -11.0042
rtoes -5.28973
lfemur -37.2375 8.03959 -4.99148
ltibia 46.818
lfoot -12.2151 1.04216
ltoes -18.2325
418
root -2.12729 17.1107 -2.8332 6.27279 1.75182 -5.29087
lowerback 18.1219 -0.208044 -4.73517
upperback 11.7116 -0.926262 -6.20569
thorax 2.45713 -0.484979 -3.78777
lowerneck -1.13028 3.62937 -7.1619
upperneck -9.17284 6.10887 14.9471
head -3.16861 2.84667 5.59581
rclavicle -1.59028e-014 -7.15625e-014
rhumerus 60.1072 -3.31886 6.99159
rradius 57.8769
rwrist -82.0589
rhand 14.3861 6.9605
rfingers 7.12502
rthumb 39.2734 -18.4807
lclavicle -1.59028e-014 -7.15625e-014
lhumerus 60.2483 -18.0008 50.1607
lradius 70.0474
lwrist 88.9719
lhand -3.53457 24.2135
lfingers 7.12502
lthumb 22.2008 52.9586
rfemur -33.0664 -1.22426 32.9372
rtibia 41.9965
rfoot -17.3864 -11.4145
rtoes -5.40242
lfemur -37.377 7.4873 -4.89996
ltibia 46.6882
lfoot -12.0295 0.881703
ltoes -18.2727
419
root -2.15999 17.1099 -2.81713 6.26631 2.5841 -5.24442
lowerback 17.9783 0.398246 -4.37645
upperback 11.4207 -0.0920016 -6.45637
thorax 2.24137 -0.0317745 -4.38765
lowerneck 0.978971 3.08639 -5.03058
upperneck -9.94658 5.40733 14.451
head -3.61445 2.32923 5.06788
rclavicle 1.27222e-014 6.67916e-014
rhumerus 58.3493 -2.05038 7.03262
rradius 57.9413
rwrist -82.2214
rhand 14.3481 6.91035
rfingers 7.12502
rthumb 39.2377 -18.5412
lclavicle 1.27222e-014 6.67916e-014
lhumerus 60.7304 -19.9427 49.4295
lradius 70.1607
lwrist 89.2027
lhand -3.80468 24.1604
lfingers 7.12502
lthumb 21.9415 52.9361
rfemur -33.1449 -1.69487 33.0193
rtibia 42.1435
rfoot -17.5263 -11.7969
rtoes -5.7154
lfemur -37.5498 6.87185 -4.84765
ltibia 46.5707
lfoot -11.8933 0.723179
ltoes -17.6803
420
root -2.19095 17.1041 -2.80328 6.24565 3.36311 -5.28409
lowerback 18.0974 0.490161 -3.91951
upperback 11.6118 0.105158 -6.58351
thorax 2.40105 0.101344 -4.82084
lowerneck 0.294066 2.67742 -5.05882
upperneck -9.869 4.88637 14.8678
head -3.42847 2.08813 5.2374
rclavicle -7.95139e-015 -2.22639e-014
rhumerus 57.9891 -2.14706 6.88649
rradius 57.9158
rwrist -82.2833
rhand 14.3028 6.9876
rfingers 7.12502
rthumb 39.195 -18.4763
lclavicle -7.95139e-015 -2.22639e-014
lhumerus 61.1869 -19.9241 48.7288
lradius 70.2629
lwrist 89.4343
lhand -3.76436 24.3341
lfingers 7.12502
lthumb 21.9802 53.1053
rfemur -33.2081 -2.08307 33.1819
rtibia 42.2755
rfoot -17.6975 -12.0985
rtoes -5.6281
lfemur -37.7423 6.37651 -4.71197
ltibia 46.4832
lfoot -11.8283 0.534482
ltoes -16.7933
421
root -2.21959 17.0963 -2.79091 6.22255 4.11244 -5.3659
lowerback 18.2564 0.570355 -3.51494
upperback 11.7049 0.26918 -6.69213
thorax 2.43495 0.21516 -5.19936
lowerneck -0.0653584 2.31952 -4.96296
upperneck -9.86779 4.43206 15.1811
head -3.32171 1.86377 5.34301
rclavicle -2.54444e-014 6.36111e-015
rhumerus 57.7009 -2.09503 6.63564
rradius 57.9447
rwrist -82.2497
rhand 14.2376 7.09531
rfingers 7.12502
rthumb 39.1336 -18.3863
lclavicle -2.54444e-014 6.36111e-015
lhumerus 61.4364 -19.966 48.0983
lradius 70.3359
lwrist 89.5015
lhand -3.68514 24.4745
lfingers 7.12502
lthumb 22.0563 53.2367
rfemur -33.2594 -2.43357 33.391
rtibia 42.3913
rfoot -17.8773 -12.3859
rtoes -5.4999
lfemur -37.9699 5.90578 -4.53637
ltibia 46.4228
lfoot -11.7851 0.45152
ltoes -16.4838
422
root -2.24876 17.0918 -2.77515 6.19333 4.82419 -5.50625
lowerback 18.1441 0.773535 -3.35274
upperback 11.6353 0.566972 -6.62132
thorax 2.43586 0.373589 -5.25956
lowerneck 0.831128 2.06126 -4.54442
upperneck -10.2803 4.12391 15.0861
head -3.557 1.64614 5.24586
rclavicle 0 -5.725e-014
rhumerus 57.4547 -1.617 6.58103
rradius 58.0419
rwrist -82.3118
rhand 14.119 6.9208
rfingers 7.12502
rthumb 39.0218 -18.593
lclavicle 0 -5.725e-014
lhumerus 61.359 -20.4021 47.7382
lradius 70.4385
lwrist 89.3285
lhand -3.95436 24.5082
lfingers 7.12502
lthumb 21.7978 53.3006
rfemur -33.3004 -2.73194 33.6458
rtibia 42.4895
rfoot -18.0333 -12.6527
rtoes -5.17367
lfemur -38.1591 5.49071 -4.29468
ltibia 46.3426
lfoot -11.7162 0.36177
ltoes -16.4918
423
root -2.27716 17.088 -2.75814 6.15558 5.55732 -5.63776
lowerback 17.9386 0.987851 -3.28884
upperback 11.708 0.883952 -6.41838
thorax 2.63895 0.53209 -5.1213
lowerneck 1.3382 1.77616 -4.4518
upperneck -10.6197 3.76983 15.0561
head -3.70649 1.4346 5.23371
rclavicle -1.27222e-014 1.11319e-014
rhumerus 57.2775 -1.3825 6.63123
rradius 58.137
rwrist -82.3496
rhand 14.0586 6.63636
rfingers 7.12502
rthumb 38.9648 -18.8938
lclavicle -1.27222e-014 1.11319e-014
lhumerus 61.3339 -20.6485 47.6548
lradius 70.4691
lwrist 89.2223
lhand -3.93722 24.596
lfingers 7.12502
lthumb 21.8142 53.3865
rfemur -33.3445 -3.04917 33.8939
rtibia 42.5912
rfoot -18.1323 -13.0175
rtoes -5.05795
lfemur -38.3264 5.07898 -4.06301
ltibia 46.2201
lfoot -11.4954 0.153779
ltoes -16.6712
424
root -2.30011 17.0898 -2.73987 6.1768 6.25132 -5.45182
lowerback 17.8442 1.1448 -3.35398
upperback 11.7606 1.09888 -6.40306
thorax 2.76003 0.640169 -5.09904
lowerneck 1.48439 1.49083 -4.44314
upperneck -10.7326 3.40251 15.1811
head -3.72852 1.23706 5.28763
rclavicle 3.97569e-014 -2.22639e-014
rhumerus 57.1638 -1.16515 6.56738
rradius 58.1789
rwrist -82.3545
rhand 13.9812 6.68658
rfingers 7.12502
rthumb 38.8919 -18.8643
lclavicle 3.97569e-014 -2.22639e-014
lhumerus 61.2617 -20.7535 47.455
lradius 70.4341
lwrist 89.3462
lhand -3.59913 24.4724
lfingers 7.12502
lthumb 22.1389 53.2248
rfemur -33.4344 -3.41009 33.779
rtibia 42.7226
rfoot -18.2895 -13.3475
rtoes -4.97502
lfemur -38.4398 4.56447 -4.19559
ltibia 46.0293
lfoot -11.3393 -0.0359866
ltoes -16.596
425
root -2.32135 17.0939 -2.71788 6.21694 6.94794 -5.14773
lowerback 17.8337 1.21502 -3.37234
upperback 11.8104 1.20191 -6.54181
thorax 2.83402 0.701763 -5.25575
lowerneck 1.38224 1.19106 -4.44719
upperneck -10.7188 3.01044 15.404
head -3.66792 1.03878 5.37568
rclavicle 7.95139e-015 -1.11319e-014
rhumerus 57.1888 -0.979484 6.31896
rradius 58.16
rwrist -82.3953
rhand 13.7076 6.49776
rfingers 7.12502
rthumb 38.6338 -19.1262
lclavicle 7.95139e-015 -1.11319e-014
lhumerus 61.1823 -20.6862 46.8865
lradius 70.5133
lwrist 89.5848
lhand -3.39896 24.2476
lfingers 7.12502
lthumb 22.331 52.9771
rfemur -33.5233 -3.83393 33.532
rtibia 42.8917
rfoot -18.4995 -13.5755
rtoes -4.92509
lfemur -38.4981 3.97352 -4.4469
ltibia 45.8082
lfoot -11.3484 -0.112114
ltoes -16.3192
426
root -2.34635 17.0939 -2.69689 6.19333 7.6529 -4.98754
lowerback 17.9549 1.25584 -3.29803
upperback 11.877 1.27049 -6.63244
thorax 2.85646 0.749597 -5.41137
lowerneck 1.15199 0.877567 -4.54218
upperneck -10.6856 2.59595 15.6617
head -3.57688 0.837712 5.49063
rclavicle -3.97569e-014 7.15625e-014
rhumerus 57.291 -0.837213 6.12415
rradius 58.2131
rwrist -82.7223
rhand 13.1982 6.17066
rfingers 7.12502
rthumb 38.1531 -19.5868
lclavicle -3.97569e-014 7.15625e-014
lhumerus 61.0441 -20.609 46.3696
lradius 70.6694
lwrist 89.6199
lhand -3.46816 24.2206
lfingers 7.12502
lthumb 22.2646 52.9581
rfemur -33.5711 -4.2102 33.448
rtibia 43.0932
rfoot -18.7762 -13.8317
rtoes -4.81031
lfemur -38.5337 3.45694 -4.5311
ltibia 45.5856
lfoot -11.2997 -0.218645
ltoes -16.3635
427
root -2.37006 17.09 -2.67959 6.21946 8.3914 -4.96321
lowerback 18.0344 1.26295 -3.17535
upperback 11.94 1.30444 -6.63068
thorax 2.89073 0.778494 -5.4872
lowerneck 0.966246 0.589586 -4.7406
upperneck -10.7753 2.22586 15.9064
head -3.53352 0.656769 5.61842
rclavicle -1.74931e-014 3.33958e-014
rhumerus 57.4992 -0.702068 5.94909
rradius 58.2406
rwrist -83.0388
rhand 12.9478 6.7749
rfingers 7.12502
rthumb 37.9166 -19.047
lclavicle -1.74931e-014 3.33958e-014
lhumerus 60.9109 -20.5609 46.1592
lradius 70.5603
lwrist 89.2576
lhand -3.20245 24.2049
lfingers 7.12502
lthumb 22.5197 52.9116
rfemur -33.7175 -4.56656 33.5186
rtibia 43.2841
rfoot -19.0053 -14.1329
rtoes -4.75142
lfemur -38.7041 3.00778 -4.47937
ltibia 45.3814
lfoot -11.1501 -0.398847
ltoes -16.423
